<svg width="60" height="60" viewBox="0 0 60 60" fill="none" xmlns="http://www.w3.org/2000/svg">
<path d="M51.9127 18.95C51.2127 18.25 50.2627 18 49.2627 18H38.5127V12C38.5127 10.9 37.3627 10 36.2627 10H23.7627C22.6627 10 21.5127 10.9 21.5127 12V18H10.7127C8.66271 18 7.0127 19.45 7.0127 21.45V46.25C7.0127 48.3 8.66271 49.95 10.7127 49.95H49.2627C51.3127 49.95 52.9627 48.3 52.9627 46.25V21.5C53.0127 20.55 52.6127 19.65 51.9127 18.95ZM40.0127 22V46H20.0127V22H40.0127ZM25.5127 14H34.5127V18H25.5127V14ZM11.0127 22H17.0127V46H11.0127V22ZM49.0127 46H43.0127V22H49.0127V46Z" fill="#1EB681"/>
</svg>
