<svg width="60" height="60" viewBox="0 0 60 60" fill="none" xmlns="http://www.w3.org/2000/svg">
<path d="M24.6127 14C24.6127 12.6 25.7127 11.5 27.1127 11.5H49.0127C50.4127 11.5 51.5127 12.6 51.5127 14C51.5127 15.4 50.4127 16.5 49.0127 16.5H27.1127C25.7627 16.5 24.6127 15.4 24.6127 14ZM49.0127 27.5H27.1127C25.7127 27.5 24.6127 28.6 24.6127 30C24.6127 31.4 25.7127 32.5 27.1127 32.5H49.0127C50.4127 32.5 51.5127 31.4 51.5127 30C51.5127 28.6 50.4127 27.5 49.0127 27.5ZM49.0127 43.5H27.1127C25.7127 43.5 24.6127 44.6 24.6127 46C24.6127 47.4 25.7127 48.5 27.1127 48.5H49.0127C50.4127 48.5 51.5127 47.4 51.5127 46C51.5127 44.6 50.4127 43.5 49.0127 43.5ZM19.0127 10.25C19.0127 9.3 18.2127 8.5 17.2627 8.5H9.7627C8.8127 8.5 8.0127 9.3 8.0127 10.25V17.75C8.0127 18.7 8.8127 19.5 9.7627 19.5H17.2627C18.2127 19.5 19.0127 18.7 19.0127 17.75V10.25ZM19.0127 33.75C19.0127 34.7 18.2127 35.5 17.2627 35.5H9.7627C8.8127 35.5 8.0127 34.7 8.0127 33.75V26.25C8.0127 25.3 8.8127 24.5 9.7627 24.5H17.2627C18.2127 24.5 19.0127 25.3 19.0127 26.25V33.75ZM16.0127 28H11.5127V32H16.0127V28ZM19.0127 49.75C19.0127 50.7 18.2127 51.5 17.2627 51.5H9.7627C8.8127 51.5 8.0127 50.7 8.0127 49.75V42.25C8.0127 41.3 8.8127 40.5 9.7627 40.5H17.2627C18.2127 40.5 19.0127 41.3 19.0127 42.25V49.75ZM16.0127 44H11.5127V48.5H16.0127V44Z" fill="#1EB681"/>
</svg>
