<svg width="60" height="60" viewBox="0 0 60 60" fill="none" xmlns="http://www.w3.org/2000/svg">
<path d="M47.5128 15.05C47.5128 9.74999 38.7128 7 30.0128 7C21.3128 7 12.5128 9.74999 12.5128 15.05C12.5128 15.1 12.5128 15.15 12.5128 15.2V15.25V45.2C12.5128 50.35 21.3128 53.05 30.0128 53.05C38.7128 53.05 47.5128 50.35 47.5128 45.2V15.25V15.2C47.5128 15.1 47.5128 15.1 47.5128 15.05ZM43.5128 30.2C43.5128 31.3 38.7628 34.05 30.0128 34.05C21.2628 34.05 16.5128 31.35 16.5128 30.2V20.35C20.0128 22.15 24.9628 23.1 30.0128 23.1C35.0628 23.1 40.0128 22.15 43.5128 20.35V30.2ZM30.0128 11C38.9128 11 43.5128 13.85 43.5128 15.05C43.5128 16.25 38.9128 19.1 30.0128 19.1C21.1128 19.1 16.5128 16.25 16.5128 15.05C16.5128 13.85 21.1128 11 30.0128 11ZM30.0128 49C21.2628 49 16.5128 46.3 16.5128 45.15V35.35C20.0128 37.1 24.9628 38 30.0128 38C35.0628 38 40.0128 37.1 43.5128 35.35V45.15C43.5128 46.3 38.7628 49 30.0128 49ZM38.5128 28.45V26C38.5128 25.05 39.3128 24.25 40.2628 24.25C41.2128 24.25 42.0128 25.05 42.0128 26V28.45C42.0128 29.4 41.2128 30.2 40.2628 30.2C39.3128 30.2 38.5128 29.45 38.5128 28.45Z" fill="#1EB681"/>
</svg>
