<svg width="60" height="60" viewBox="0 0 60 60" fill="none" xmlns="http://www.w3.org/2000/svg">
<path d="M47.0128 10C47.0128 8.9 46.1128 8 45.0128 8H15.0128C13.9128 8 13.0128 8.9 13.0128 10V50C13.0128 51.1 13.9128 52 15.0128 52H45.0128C46.1128 52 47.0128 51.1 47.0128 50V10ZM43.0128 48H17.0128V12H43.0128V48ZM22.0128 40.75C22.0128 39.8 22.8128 39 23.7628 39H35.6628C36.6128 39 37.4128 39.8 37.4128 40.75C37.4128 41.7 36.6128 42.5 35.6628 42.5H23.7628C22.8128 42.5 22.0128 41.7 22.0128 40.75ZM22.0128 33.75C22.0128 32.8 22.8128 32 23.7628 32H35.6628C36.6128 32 37.4128 32.8 37.4128 33.75C37.4128 34.7 36.6128 35.5 35.6628 35.5H23.7628C22.8128 35.5 22.0128 34.7 22.0128 33.75ZM37.5128 19.25C37.5128 18.3 36.7128 17.5 35.7628 17.5H23.7628C22.8128 17.5 22.0128 18.3 22.0128 19.25V26.25C22.0128 27.2 22.8128 28 23.7628 28H35.7628C36.7128 28 37.5128 27.2 37.5128 26.25V19.25ZM25.5128 21H34.0128V24.5H25.5128V21Z" fill="#1EB681"/>
</svg>
