<svg width="60" height="60" viewBox="0 0 60 60" fill="none" xmlns="http://www.w3.org/2000/svg">
<path d="M49.5627 11.1L45.9628 7.45001C45.6628 7.15001 45.3128 7 44.9128 7C44.5128 7 44.1127 7.15001 43.8627 7.45001L22.9128 28.7C22.7628 28.85 22.6627 29 22.5627 29.2L20.2128 35.15C20.0128 35.7 20.1127 36.35 20.5627 36.75C20.8627 37.05 21.2127 37.2 21.6127 37.2C21.8127 37.2 21.9628 37.15 22.1628 37.1L28.0627 34.75C28.2627 34.65 28.4127 34.55 28.5627 34.4L49.5128 13.15C50.1628 12.6 50.1627 11.65 49.5627 11.1ZM26.7128 32.1L24.3127 33.05L25.2628 30.6L44.9128 10.65L46.4128 12.15L26.7128 32.1ZM42.0128 30.3V50.5C42.0128 51.6 41.0128 52.5 39.9128 52.5H11.5128C10.4128 52.5 9.51276 51.6 9.51276 50.5V12.4C9.51276 11.3 10.4128 10.5 11.5128 10.5H32.3127C33.4127 10.5 34.3127 11.4 34.3127 12.5C34.3127 13.6 33.4127 14.5 32.3127 14.5H13.5128V48.5H38.0128V30.3C38.0128 29.2 38.9128 28.3 40.0128 28.3C41.1128 28.3 42.0128 29.2 42.0128 30.3Z" fill="#1EB681"/>
</svg>
