<svg width="60" height="60" viewBox="0 0 60 60" fill="none" xmlns="http://www.w3.org/2000/svg">
<path d="M36.9125 53C30.7125 53 20.9625 50.95 18.5625 49.25C18.0125 48.85 17.7125 48.25 17.7125 47.6V28.05C17.7125 27.45 18.0125 26.85 18.4625 26.5C18.6125 26.4 22.1125 23.65 25.7625 21.6C30.3125 19.1 33.4625 15.6 34.2125 13.4C35.1125 10.7 36.4125 7 40.5125 7C42.4625 7 44.0625 8.1 44.9125 10C46.6125 13.9 44.8125 19.3 41.8125 23.55C43.8125 24 46.3125 24.65 47.8125 25.1C50.5625 25.95 52.3625 27.95 52.7625 30.4C53.1125 32.9 51.8625 35.45 49.2125 37.4C47.2625 42.65 43.9125 50.95 41.4625 52.3C40.5125 52.8 38.8625 53 36.9125 53ZM21.7125 46.4C25.5125 48 37.2125 49.65 39.4125 48.8C40.5625 47.75 43.5125 41.05 45.5625 35.4C45.7125 35 45.9625 34.65 46.3125 34.4C47.9625 33.3 48.8125 32 48.6625 30.9C48.5125 30 47.7125 29.25 46.5125 28.85C44.0125 28.05 37.8125 26.7 37.7125 26.7C37.0125 26.55 36.4625 26.05 36.2125 25.35C35.9625 24.65 36.1625 23.9 36.6625 23.4C41.1625 18.55 41.9625 13.6 41.1125 11.6C40.8625 11 40.5625 11 40.4125 11C39.4125 11 38.9625 11.7 37.9125 14.7C36.7125 18.2 32.5625 22.4 27.6125 25.1C25.2125 26.4 22.8125 28.15 21.6125 29.05V46.4H21.7125ZM13.8125 47.8V27.85C13.8125 26.05 12.3625 24.6 10.5625 24.6C8.76249 24.6 7.31249 26.05 7.31249 27.85V47.8C7.31249 49.6 8.76249 51.05 10.5625 51.05C12.3125 51.05 13.8125 49.55 13.8125 47.8Z" fill="#1EB681"/>
</svg>
