<svg width="60" height="60" viewBox="0 0 60 60" fill="none" xmlns="http://www.w3.org/2000/svg">
<path d="M30.0128 39.65C24.7128 39.65 20.3628 35.3499 20.3628 29.9999C20.3628 24.6999 24.6628 20.3499 30.0128 20.3499C35.3128 20.3499 39.6628 24.6499 39.6628 29.9999C39.6628 35.2999 35.3128 39.65 30.0128 39.65ZM30.0128 23.9C26.6628 23.9 23.9128 26.6499 23.9128 29.9999C23.9128 33.3499 26.6628 36.0999 30.0128 36.0999C33.3628 36.0999 36.1128 33.3499 36.1128 29.9999C36.1128 26.6499 33.3628 23.9 30.0128 23.9ZM30.0128 52.9999H29.7628C28.0128 52.9999 26.5128 52.8 26.4128 52.8C25.6128 52.7 25.0128 52.1 24.8628 51.3L24.3628 47.6999C23.2628 47.3499 22.2128 46.8999 21.2128 46.3499L18.3628 48.4999C17.7128 48.9999 16.8628 48.9499 16.2128 48.4999C16.1628 48.4499 14.9628 47.5 13.7128 46.3L13.5128 46.0999C12.2628 44.8499 11.3628 43.6499 11.3128 43.5999C10.8128 42.9499 10.8128 42.0999 11.3128 41.4499L13.5128 38.55C12.9628 37.55 12.5628 36.4499 12.2128 35.3499L8.71283 34.8499C7.91283 34.7499 7.31283 34.1 7.21283 33.3C7.21283 33.25 7.01282 31.7 7.01282 29.95V29.7C7.01282 27.95 7.21283 26.4499 7.21283 26.3499C7.31283 25.5499 7.91283 24.9499 8.71283 24.7999L12.3128 24.2999C12.6628 23.1999 13.1128 22.15 13.6628 21.15L11.5128 18.2999C11.0128 17.6499 11.0628 16.8 11.5128 16.15C11.5628 16.1 12.5128 14.9 13.7128 13.65L13.9128 13.45C15.1628 12.2 16.3628 11.3 16.4128 11.25C17.0628 10.75 17.9128 10.75 18.5628 11.25L21.4628 13.45C22.4628 12.9 23.5628 12.5 24.6628 12.15L25.1628 8.64998C25.2628 7.84998 25.9128 7.24998 26.7128 7.14998C26.7628 7.14998 28.3128 6.94996 30.0628 6.94996H30.3128C32.0628 6.94996 33.5628 7.14998 33.6628 7.14998C34.4628 7.24998 35.0628 7.84998 35.2128 8.64998L35.7128 12.25C36.8128 12.6 37.8628 13.0499 38.8628 13.5999L41.7128 11.45C42.3628 10.95 43.2128 11 43.8628 11.45C43.9128 11.5 45.1128 12.45 46.3628 13.65L46.5628 13.8499C47.8128 15.0999 48.7128 16.2999 48.7628 16.3499C49.2628 16.9999 49.2628 17.85 48.7628 18.5L46.5628 21.4C47.1128 22.4 47.5128 23.4999 47.8628 24.5999L51.3628 25.0999C52.1628 25.1999 52.7628 25.85 52.8628 26.65C52.8628 26.7 53.0628 28.2499 53.0628 29.9999V30.2499C53.0628 31.9999 52.8628 33.4999 52.8628 33.5999C52.7628 34.3999 52.1628 35 51.3628 35.15L47.7628 35.65C47.4128 36.75 46.9628 37.8 46.4128 38.8L48.5628 41.65C49.0628 42.3 49.0128 43.15 48.5628 43.8C48.5128 43.85 47.5628 45.05 46.3628 46.3L46.1628 46.4999C44.9128 47.7499 43.7128 48.6499 43.6628 48.6999C43.0128 49.1999 42.1628 49.1999 41.5128 48.6999L38.6128 46.4999C37.6128 47.0499 36.5128 47.45 35.4128 47.8L34.9128 51.3C34.8128 52.1 34.1628 52.7 33.3628 52.8C33.2628 52.8 31.7628 52.9999 30.0128 52.9999ZM28.2128 49.4C28.6628 49.45 29.2128 49.4499 29.7628 49.4499H30.0128C30.5628 49.4499 31.1128 49.45 31.5628 49.4L32.0128 46.0999C32.1128 45.3499 32.6628 44.7999 33.3628 44.5999C34.9128 44.2499 36.4128 43.65 37.7628 42.8C38.1628 42.55 38.6628 42.4999 39.1128 42.5999C39.3628 42.6499 39.6128 42.7999 39.8128 42.9499L42.4628 44.9499C42.8128 44.6499 43.2128 44.3 43.6128 43.9L43.8128 43.6999C44.2128 43.2999 44.5628 42.9 44.8628 42.55L42.8628 39.9C42.4128 39.3 42.4128 38.5 42.7628 37.9C43.6128 36.6 44.2128 35.15 44.5628 33.65C44.7128 32.9 45.3128 32.2999 46.0628 32.1999L49.4128 31.7499C49.4628 31.2999 49.4628 30.75 49.4628 30.2V29.95C49.4628 29.4 49.4628 28.85 49.4128 28.4L46.1128 27.95C45.4128 27.85 44.8128 27.2999 44.6628 26.5999C44.3128 25.0499 43.7128 23.6 42.9128 22.25C42.8128 22.15 42.7628 21.9999 42.7128 21.8499C42.5128 21.2999 42.6128 20.65 42.9628 20.2L45.0128 17.5C44.7128 17.15 44.3628 16.7499 43.9628 16.3499L43.7628 16.15C43.3628 15.75 42.9628 15.3999 42.6128 15.0999L39.9628 17.0999C39.3128 17.5499 38.4628 17.5499 37.8628 17.0999C36.5628 16.2999 35.1128 15.6999 33.6128 15.2999C32.9128 15.1499 32.3628 14.5499 32.2628 13.7999L31.8128 10.45C31.3628 10.4 30.8128 10.4 30.2628 10.4H30.0128C29.4628 10.4 28.9128 10.4 28.4628 10.45L28.0128 13.75C27.9128 14.55 27.3128 15.15 26.5128 15.25C25.0128 15.6 23.5628 16.2 22.2628 17C21.8628 17.25 21.3628 17.3 20.9128 17.2C20.6628 17.15 20.4128 16.9999 20.2128 16.8499L17.6128 14.8499C17.2628 15.1499 16.8628 15.5 16.4628 15.9L16.2628 16.0999C15.8628 16.4999 15.5128 16.9 15.2128 17.25L17.2128 19.9C17.6628 20.5 17.6628 21.25 17.3128 21.9C17.2628 21.95 17.2628 21.9999 17.2128 22.0499C16.4128 23.3499 15.8128 24.7999 15.4628 26.2999C15.3128 26.9999 14.7128 27.55 13.9628 27.65L10.6128 28.0999C10.5628 28.5499 10.5628 29.1 10.5628 29.65V29.9C10.5628 30.45 10.5628 31 10.6128 31.45L13.9128 31.9C14.7128 32 15.3128 32.6 15.4128 33.4V33.4499C15.7628 34.9499 16.3628 36.35 17.1628 37.65C17.4128 38.1 17.5128 38.65 17.3128 39.15C17.2628 39.35 17.1128 39.5499 16.9628 39.7499L15.0128 42.3499C15.3128 42.6999 15.6628 43.0999 16.0628 43.4999L16.2628 43.6999C16.6628 44.0999 17.0628 44.4499 17.4128 44.7499L20.0628 42.7499C20.7128 42.2499 21.6628 42.3 22.2628 42.8C23.5628 43.6 24.9628 44.1499 26.4128 44.4999C27.1128 44.6499 27.6628 45.2499 27.7628 45.9999L28.2128 49.4Z" fill="#1EB681"/>
</svg>
