<svg width="60" height="60" viewBox="0 0 60 60" fill="none" xmlns="http://www.w3.org/2000/svg">
<path d="M43.4127 19.4497L33.7127 40.3497C32.8627 42.4997 31.3627 43.7498 29.7127 43.7498C28.3627 43.7498 27.2127 43.0497 26.5627 41.9497C25.8627 40.6497 25.9127 39.0497 26.7627 37.6997L39.4627 17.3497C40.1127 16.3497 41.4127 15.9998 42.4627 16.5498C43.5127 17.0998 43.9127 18.3497 43.4127 19.4497ZM46.8127 25.4998C46.0627 24.6998 44.8127 24.6498 43.9627 25.3998C43.1627 26.1498 43.1127 27.3998 43.8627 28.2498C47.1627 31.8498 49.0127 36.5498 49.0127 41.4998C49.0127 42.5998 49.9127 43.4998 51.0127 43.4998C52.1127 43.4998 53.0127 42.5998 53.0127 41.4998C53.0127 35.5498 50.8127 29.8498 46.8127 25.4998ZM31.6127 22.1997C32.7127 22.2997 33.6627 21.4998 33.7627 20.3998C33.8627 19.2998 33.0627 18.3498 31.9627 18.2498C31.3127 18.1998 30.6627 18.1498 30.0127 18.1498C17.3127 18.1498 7.0127 28.6498 7.0127 41.5498C7.0127 42.6498 7.9127 43.5498 9.0127 43.5498C10.1127 43.5498 11.0127 42.6498 11.0127 41.5498C11.0127 30.8498 19.5127 22.1498 30.0127 22.1498C30.5627 22.0998 31.1127 22.1497 31.6127 22.1997Z" fill="#1EB681"/>
<rect x="45" y="51" width="8" height="4" rx="2" fill="#1EB681"/>
<rect x="35" y="51" width="8" height="4" rx="2" fill="#1EB681"/>
</svg>
