<svg width="60" height="60" viewBox="0 0 60 60" fill="none" xmlns="http://www.w3.org/2000/svg">
<path d="M30.0124 7C17.3125 7 7.01245 17.3 7.01245 30C7.01245 42.7 17.3125 53 30.0124 53C42.7124 53 53.0124 42.7 53.0124 30C53.0124 17.3 42.7124 7 30.0124 7ZM30.0124 49C19.5125 49 11.0125 40.5 11.0125 30C11.0125 19.5 19.5125 11 30.0124 11C40.5124 11 49.0124 19.5 49.0124 30C49.0124 40.5 40.5124 49 30.0124 49ZM37.6625 34.8001C38.4625 35.6001 38.4625 36.85 37.6625 37.65C37.2625 38.05 36.7624 38.25 36.2624 38.25C35.7624 38.25 35.2624 38.05 34.8624 37.65L28.6625 31.45C28.2625 31.05 28.0624 30.5501 28.0624 30.0501V18.15C28.0624 17.05 28.9624 16.15 30.0624 16.15C31.1624 16.15 32.0624 17.05 32.0624 18.15V29.25L37.6625 34.8001Z" fill="#1EB681"/>
</svg>
