<svg width="60" height="60" viewBox="0 0 60 60" fill="none" xmlns="http://www.w3.org/2000/svg">
<path d="M30.0128 35.5503C37.4128 35.5503 43.4628 29.5003 43.4628 22.0503C43.4628 14.6003 37.4128 8.55034 30.0128 8.55034C22.6128 8.55034 16.5628 14.6003 16.5628 22.0503C16.5628 29.5003 22.6128 35.5503 30.0128 35.5503ZM30.0128 12.5003C35.2128 12.5003 39.4628 16.7503 39.4628 22.0003C39.4628 27.2503 35.2128 31.5003 30.0128 31.5003C24.8128 31.5003 20.5628 27.2503 20.5628 22.0003C20.5628 16.7503 24.8128 12.5003 30.0128 12.5003ZM36.2628 36.8503C35.6128 36.6503 34.8628 36.8003 34.3628 37.2503L30.0128 40.9502L25.6628 37.2503C25.1128 36.8003 24.4128 36.6503 23.7628 36.8503C20.9628 37.7503 7.01276 42.5503 7.01276 49.5003C7.01276 50.6003 7.91276 51.5003 9.01276 51.5003H51.0128C52.1128 51.5003 53.0128 50.6003 53.0128 49.5003C53.0128 42.5503 39.0628 37.7503 36.2628 36.8503ZM12.0628 47.5003C14.2628 45.1503 19.5628 42.5503 23.9628 41.0503L28.7128 45.1003C29.4628 45.7503 30.5628 45.7503 31.3128 45.1003L36.0628 41.0503C40.4628 42.6003 45.7628 45.2003 47.9628 47.5003H12.0628Z" fill="#1EB681"/>
</svg>
