<svg width="18" height="18" viewBox="0 0 18 18" fill="none" xmlns="http://www.w3.org/2000/svg">
<path fill-rule="evenodd" clip-rule="evenodd" d="M1.5 7.5C1.5 3.375 4.875 0 9 0C13.125 0 16.5 3.375 16.5 7.5C16.5 13.05 9.675 17.7 9.45 17.85C9.3 17.925 9.15 18 9 18C8.85 18 8.7 17.925 8.55 17.85C8.325 17.7 1.5 13.05 1.5 7.5ZM3 7.5C3 11.55 7.575 15.3 9 16.35C10.425 15.3 15 11.55 15 7.5C15 4.2 12.3 1.5 9 1.5C5.7 1.5 3 4.2 3 7.5ZM9 4.5C7.35 4.5 6 5.85 6 7.5C6 9.15 7.35 10.5 9 10.5C10.65 10.5 12 9.15 12 7.5C12 5.85 10.65 4.5 9 4.5ZM7.5 7.5C7.5 8.325 8.175 9 9 9C9.825 9 10.5 8.325 10.5 7.5C10.5 6.675 9.825 6 9 6C8.175 6 7.5 6.675 7.5 7.5Z" fill="#1EB681"/>
<mask id="mask0" mask-type="alpha" maskUnits="userSpaceOnUse" x="1" y="0" width="16" height="18">
<path fill-rule="evenodd" clip-rule="evenodd" d="M1.5 7.5C1.5 3.375 4.875 0 9 0C13.125 0 16.5 3.375 16.5 7.5C16.5 13.05 9.675 17.7 9.45 17.85C9.3 17.925 9.15 18 9 18C8.85 18 8.7 17.925 8.55 17.85C8.325 17.7 1.5 13.05 1.5 7.5ZM3 7.5C3 11.55 7.575 15.3 9 16.35C10.425 15.3 15 11.55 15 7.5C15 4.2 12.3 1.5 9 1.5C5.7 1.5 3 4.2 3 7.5ZM9 4.5C7.35 4.5 6 5.85 6 7.5C6 9.15 7.35 10.5 9 10.5C10.65 10.5 12 9.15 12 7.5C12 5.85 10.65 4.5 9 4.5ZM7.5 7.5C7.5 8.325 8.175 9 9 9C9.825 9 10.5 8.325 10.5 7.5C10.5 6.675 9.825 6 9 6C8.175 6 7.5 6.675 7.5 7.5Z" fill="white"/>
</mask>
<g mask="url(#mask0)">
</g>
</svg>
