<svg width="18" height="18" viewBox="0 0 18 18" fill="none" xmlns="http://www.w3.org/2000/svg">
<path fill-rule="evenodd" clip-rule="evenodd" d="M17.281 7.82609C17.7523 7.74783 18.0665 7.35652 17.988 6.96522C17.5952 3.36522 14.6889 0.469565 10.997 0C10.6043 0 10.133 0.313043 10.133 0.704348C10.133 1.09565 10.4472 1.48696 10.8399 1.56522C13.8248 1.95652 16.1028 4.22609 16.417 7.12174C16.4955 7.51304 16.8097 7.82609 17.2025 7.82609H17.281ZM13.1179 10.487C13.7463 10.7217 14.4532 10.8783 15.1602 10.9565C16.3384 11.113 17.2025 12.1304 17.2025 13.3043V15.6522C17.2025 16.2783 16.8883 16.8261 16.4955 17.2957C16.1028 17.7652 15.4744 18 14.846 18H14.6103C12.0967 17.7652 9.58311 16.9043 7.46226 15.4957C5.49851 14.2435 3.7704 12.5217 2.5136 10.5652C1.17825 8.45217 0.23565 5.94783 0 3.44348C0 2.81739 0.1571 2.1913 0.549851 1.72174C0.942601 1.25217 1.49245 0.939131 2.12085 0.86087H2.3565H4.71301C5.89126 0.86087 6.91241 1.72174 7.06951 2.89565C7.14806 3.6 7.30516 4.30435 7.54081 4.93043C7.85501 5.7913 7.61936 6.8087 6.99096 7.43478L6.44111 7.98261C7.38371 9.46956 8.64051 10.6435 10.0544 11.5826L10.6043 11.0348C11.3112 10.4087 12.2538 10.1739 13.1179 10.487ZM15.6315 15.6522V13.3043C15.6315 12.913 15.3173 12.6 15.0031 12.5217C14.2176 12.3652 13.4321 12.2087 12.6466 11.8957C12.3324 11.7391 12.0182 11.8174 11.7825 12.0522L10.7614 13.0696C10.5257 13.3826 10.133 13.3826 9.81876 13.2261C7.69791 12.0522 5.96981 10.3304 4.79156 8.21739C4.63446 7.90435 4.71301 7.51304 4.94866 7.27826L5.96981 6.33913C6.12691 6.10435 6.20546 5.79131 6.12691 5.47826C5.81271 4.77391 5.57706 3.91304 5.49851 3.13043C5.41996 2.73913 5.10576 2.42609 4.71301 2.42609H2.3565C2.12085 2.42609 1.8852 2.58261 1.7281 2.73913C1.64955 2.89565 1.571 3.05217 1.571 3.28696C1.80665 5.55652 2.59215 7.74783 3.84895 9.70435C5.02721 11.5043 6.51966 13.0696 8.32631 14.1652C10.2901 15.4174 12.4895 16.2 14.7674 16.4348C15.0816 16.4348 15.2387 16.3565 15.3958 16.2C15.5529 16.0435 15.6315 15.887 15.6315 15.6522ZM10.8399 4.77391C10.4472 4.69565 10.133 4.30435 10.2115 3.83478C10.2901 3.44348 10.6828 3.13043 11.1541 3.2087C13.0393 3.6 14.5318 5.0087 14.846 6.88696C14.9245 7.27826 14.6889 7.74783 14.2176 7.82609H14.0605C13.6677 7.82609 13.3535 7.5913 13.275 7.2C13.0393 5.94783 12.0967 5.0087 10.8399 4.77391Z" fill="black"/>
<mask id="mask0" mask-type="alpha" maskUnits="userSpaceOnUse" x="0" y="0" width="18" height="18">
<path fill-rule="evenodd" clip-rule="evenodd" d="M17.281 7.82609C17.7523 7.74783 18.0665 7.35652 17.988 6.96522C17.5952 3.36522 14.6889 0.469565 10.997 0C10.6043 0 10.133 0.313043 10.133 0.704348C10.133 1.09565 10.4472 1.48696 10.8399 1.56522C13.8248 1.95652 16.1028 4.22609 16.417 7.12174C16.4955 7.51304 16.8097 7.82609 17.2025 7.82609H17.281ZM13.1179 10.487C13.7463 10.7217 14.4532 10.8783 15.1602 10.9565C16.3384 11.113 17.2025 12.1304 17.2025 13.3043V15.6522C17.2025 16.2783 16.8883 16.8261 16.4955 17.2957C16.1028 17.7652 15.4744 18 14.846 18H14.6103C12.0967 17.7652 9.58311 16.9043 7.46226 15.4957C5.49851 14.2435 3.7704 12.5217 2.5136 10.5652C1.17825 8.45217 0.23565 5.94783 0 3.44348C0 2.81739 0.1571 2.1913 0.549851 1.72174C0.942601 1.25217 1.49245 0.939131 2.12085 0.86087H2.3565H4.71301C5.89126 0.86087 6.91241 1.72174 7.06951 2.89565C7.14806 3.6 7.30516 4.30435 7.54081 4.93043C7.85501 5.7913 7.61936 6.8087 6.99096 7.43478L6.44111 7.98261C7.38371 9.46956 8.64051 10.6435 10.0544 11.5826L10.6043 11.0348C11.3112 10.4087 12.2538 10.1739 13.1179 10.487ZM15.6315 15.6522V13.3043C15.6315 12.913 15.3173 12.6 15.0031 12.5217C14.2176 12.3652 13.4321 12.2087 12.6466 11.8957C12.3324 11.7391 12.0182 11.8174 11.7825 12.0522L10.7614 13.0696C10.5257 13.3826 10.133 13.3826 9.81876 13.2261C7.69791 12.0522 5.96981 10.3304 4.79156 8.21739C4.63446 7.90435 4.71301 7.51304 4.94866 7.27826L5.96981 6.33913C6.12691 6.10435 6.20546 5.79131 6.12691 5.47826C5.81271 4.77391 5.57706 3.91304 5.49851 3.13043C5.41996 2.73913 5.10576 2.42609 4.71301 2.42609H2.3565C2.12085 2.42609 1.8852 2.58261 1.7281 2.73913C1.64955 2.89565 1.571 3.05217 1.571 3.28696C1.80665 5.55652 2.59215 7.74783 3.84895 9.70435C5.02721 11.5043 6.51966 13.0696 8.32631 14.1652C10.2901 15.4174 12.4895 16.2 14.7674 16.4348C15.0816 16.4348 15.2387 16.3565 15.3958 16.2C15.5529 16.0435 15.6315 15.887 15.6315 15.6522ZM10.8399 4.77391C10.4472 4.69565 10.133 4.30435 10.2115 3.83478C10.2901 3.44348 10.6828 3.13043 11.1541 3.2087C13.0393 3.6 14.5318 5.0087 14.846 6.88696C14.9245 7.27826 14.6889 7.74783 14.2176 7.82609H14.0605C13.6677 7.82609 13.3535 7.5913 13.275 7.2C13.0393 5.94783 12.0967 5.0087 10.8399 4.77391Z" fill="white"/>
</mask>
<g mask="url(#mask0)">
<rect width="45" height="45" fill="#1EB681"/>
</g>
</svg>
