<svg width="192" height="54" viewBox="0 0 192 54" fill="none" xmlns="http://www.w3.org/2000/svg">
<g clip-path="url(#clip0)">
<path d="M88.5252 15.7487C88.1872 15.0037 87.7378 14.3575 87.1643 13.8011C86.5926 13.2449 85.9169 12.808 85.1608 12.4795C84.393 12.1514 83.5855 11.9924 82.7264 11.9924L67.2171 11.9924C66.8797 11.9924 66.5933 12.1122 66.3583 12.3409C66.113 12.5689 66.0006 12.8475 66.0006 13.1749V16.9484H82.3687C82.7671 16.9484 83.1255 17.1074 83.4222 17.4158C83.7189 17.7134 83.8716 18.157 83.8716 18.5551C83.8716 18.9518 83.7189 19.3004 83.4222 19.5883C83.1255 19.8863 82.7671 20.0253 82.3687 20.0253L71.5888 19.9955V19.9861H66.0006V31.703C66.0006 31.7726 66.0206 31.8322 66.0716 31.8717C66.1129 31.9219 66.1743 31.9414 66.246 31.9414C66.798 31.9219 67.8421 31.8419 68.6853 31.703C69.4214 31.564 70.0558 31.2654 70.6079 30.799C71.2216 30.2619 71.61 29.6358 71.7637 28.9012C71.9274 28.1753 71.9984 27.4505 71.9984 26.7249V24.9961H82.7984C83.6569 24.9961 84.455 24.837 85.2118 24.5096C85.9579 24.1811 86.6233 23.7445 87.1957 23.188C87.7685 22.6309 88.2178 21.9854 88.5352 21.2404C88.8623 20.4948 89.026 19.1135 89.026 18.2795C89.026 17.4445 88.8526 16.4936 88.5252 15.7487Z" fill="#204466"/>
<path d="M111.362 24.2107C112.17 24.1407 112.937 23.9425 113.653 23.6044C114.369 23.2665 114.982 22.8293 115.515 22.2822C116.036 21.7364 116.445 21.1103 116.741 20.4052C117.048 19.6997 117.191 18.9444 117.191 18.1294C117.191 17.2954 117.028 16.5096 116.69 15.7646C116.353 15.0193 115.903 14.3738 115.33 13.8166C114.757 13.2605 114.092 12.8236 113.326 12.4955C112.559 12.1677 111.751 12.009 110.892 12.009L95.2173 12.009C94.8796 12.009 94.5936 12.1285 94.3589 12.3565C94.1235 12.5852 94.0001 12.8631 94.0001 13.1915V16.9464L110.533 16.9464C110.943 16.9464 111.291 17.1051 111.586 17.4135C111.894 17.7114 112.037 18.0694 112.037 18.4668C112.037 18.8642 111.894 19.3056 111.586 19.5938C111.291 19.8918 110.943 20.0308 110.533 20.0308L100.122 20.001V19.9913L94.0001 19.9913L94.0001 32.767C94.0001 32.8363 94.0212 32.8962 94.0722 32.9357C94.1235 32.9856 94.1845 33.0053 94.2565 33.0053C94.79 33.0053 96.0732 33.0228 96.7986 32.8838C97.525 32.7445 98.169 32.3297 98.7211 31.8623C99.3449 31.3263 99.7339 30.7001 99.8876 29.9646C100.041 29.2397 100.008 28.5138 100.008 27.7882V25.0107H105.014L109.549 30.7133C110.07 31.3005 110.698 31.9514 111.322 32.3689C112.51 33.1634 114.451 33.3746 115.703 32.6333C116.244 32.3055 116.705 31.9878 117.062 31.6593C117.134 31.6392 117.165 31.58 117.165 31.4802C117.165 31.4112 117.145 31.3617 117.093 31.3118L111.362 24.2107Z" fill="#204466"/>
<path d="M128.647 13.2754C128.694 13.2754 128.766 13.2988 128.862 13.345C128.91 13.3916 128.933 13.4495 128.933 13.5195V27.847C128.933 28.5665 128.856 29.29 128.701 30.0203C128.545 30.7508 128.158 31.3826 127.537 31.9163C126.988 32.38 126.35 32.6814 125.622 32.82C124.894 32.9593 123.811 33.0406 123.262 33.0634C123.19 33.0634 123.13 33.0406 123.083 32.9938C123.035 32.9479 123.011 32.8893 123.011 32.82V18.4922C123.011 17.774 123.089 17.0491 123.243 16.3185C123.399 15.588 123.786 14.9568 124.408 14.4235C124.957 13.9832 125.588 13.6872 126.304 13.5359C127.02 13.3859 128.098 13.2988 128.647 13.2754Z" fill="#204466"/>
<path d="M161.676 14.1101C162.464 14.8745 162.893 15.8254 162.965 16.9611C162.965 17.355 163.001 17.7484 163.001 18.1437V32.7499C163.001 32.8196 162.977 32.8771 162.93 32.924C162.906 32.9702 162.846 32.993 162.75 32.993C162.202 33.0388 160.998 32.9834 160.27 32.8444C159.542 32.7055 158.913 32.3028 158.388 31.839C157.767 31.3057 157.374 30.6739 157.207 29.9433C157.039 29.2134 156.956 28.4885 156.956 27.7697V19.9249L149.351 29.6445C149.245 29.7539 149.128 29.8288 148.97 29.8288C148.811 29.8288 148.671 29.707 148.605 29.6133L140.956 20L140.909 28.0266C140.909 28.7455 140.831 29.4704 140.676 30.2003C140.521 30.9308 140.134 31.5626 139.513 32.096C138.964 32.5597 138.397 32.7921 137.67 32.931C137.119 33.0363 135.698 33 135.141 33C135.069 33 135.01 32.9772 134.962 32.931C134.914 32.8842 134.89 32.8266 134.89 32.7569L134.938 18.1437C134.938 17.912 134.943 17.704 134.956 17.5179C134.968 17.3327 134.986 17.1476 135.01 16.9611C135.057 15.8254 135.487 14.8745 136.298 14.1101C137.11 13.3223 138.099 12.9276 139.269 12.9276C139.961 12.9276 140.606 13.0729 141.202 13.3615C141.799 13.6521 142.299 14.0636 142.706 14.5966L148.97 22.4216L155.234 14.5966H155.269C155.674 14.0636 156.17 13.6521 156.754 13.3615C157.339 13.0729 157.977 12.9276 158.67 12.9276C159.815 12.9276 160.818 13.3223 161.676 14.1101Z" fill="#204466"/>
<path d="M191.542 28.0198H181.662C181.315 28.0198 180.977 28.0104 180.66 28H175V25H184.627C185.324 25 186.029 24.9407 186.755 24.8115C187.482 24.6819 188.116 24.3545 188.637 23.8271C189.117 23.3705 189.424 22.4646 189.568 21.8482C189.711 21.2418 189.793 20.7058 189.823 20.2488C189.823 20.1791 189.793 20.1195 189.751 20.0696C189.72 20.0298 189.659 20 189.568 20H180.056H180L174.892 20.0104H169.215H169V32.7616C169 32.8313 169.021 32.8909 169.072 32.9304C169.107 32.9732 169.162 32.9849 169.221 32.9903V33.005H179.506V33H186.418C187.154 33 187.901 32.9407 188.657 32.8115C189.404 32.6819 190.059 32.3545 190.61 31.8174C191.081 31.3309 191.398 30.9467 191.542 30.3206C191.684 29.6942 191.766 28.7852 191.787 28.298C191.787 28.2086 191.766 28.1493 191.715 28.1292C191.664 28.0599 191.613 28.0198 191.542 28.0198Z" fill="#204466"/>
<path d="M174.892 16.9477H180.057C180.574 16.9477 181.09 16.9477 181.662 16.9477H186.418C187.154 16.9477 187.901 16.8881 188.658 16.7588C189.404 16.6296 190.058 16.2422 190.611 15.7058C191.081 15.2193 191.398 14.6726 191.542 14.0562C191.685 13.4405 191.767 12.7255 191.787 12.2391C191.787 12.1691 191.767 12.1195 191.715 12.0696C191.664 12.0198 191.614 12 191.542 12H184.214H174.35V12.0198C173.87 12.0502 173.328 12.1289 172.713 12.2585C172.59 12.2839 172.482 12.3398 172.363 12.3747C172.315 12.385 172.295 12.3958 172.264 12.4068C172.241 12.4145 172.209 12.4195 172.192 12.4269C172.188 12.4289 172.188 12.4316 172.184 12.4339C171.688 12.6003 171.219 12.8203 170.812 13.1431C170.188 13.6791 169.799 14.4737 169.646 15.1993C169.523 15.7852 169.452 16.3718 169.43 16.9477H170.638H174.892Z" fill="#204466"/>
<path d="M68.7733 42.9345C68.612 42.9345 68.4449 42.8045 68.3863 42.6504L67.2784 39.5472V42.6307C67.2784 42.7986 67.1488 42.9345 66.9816 42.9345H66.4148C66.2466 42.9345 66.118 42.7986 66.118 42.6307V38.714C66.118 38.5457 66.2466 38.4095 66.4082 38.4095H67.6909C67.858 38.4095 68.0196 38.5457 68.0706 38.706L68.9987 41.4028L69.9271 38.706C69.9784 38.5457 70.139 38.4095 70.3072 38.4095H71.5895C71.7511 38.4095 71.88 38.5457 71.88 38.714V42.6307C71.88 42.7986 71.7511 42.9345 71.5833 42.9345H71.0164C70.8486 42.9345 70.7197 42.7986 70.7197 42.6307V39.5472L69.6114 42.6504C69.5528 42.8045 69.3853 42.9345 69.2244 42.9345H68.7733Z" fill="#1BAC78"/>
<path d="M74.3909 40.9497H76.3948V39.3015H75.4992C75.0935 39.3015 74.7713 39.5472 74.6683 39.9354L74.3909 40.9497ZM73.5273 39.6378C73.7913 38.6355 74.7003 38.4092 75.616 38.4092H77.3101C77.4652 38.4092 77.5813 38.5457 77.5813 38.7002V42.6438C77.5813 42.8052 77.4462 42.9345 77.2846 42.9345H76.6919C76.5244 42.9345 76.3948 42.8052 76.3948 42.6369V41.8413H74.159L73.9463 42.6369C73.9008 42.8052 73.7399 42.9345 73.5721 42.9345H72.9531C72.786 42.9345 72.6892 42.8052 72.7347 42.6438L73.5273 39.6378Z" fill="#1BAC78"/>
<path d="M79.9946 39.3022V41.034H81.1422C81.7601 41.034 82.2184 40.9044 82.2184 40.1679C82.2184 39.4311 81.7601 39.3022 81.1422 39.3022H79.9946ZM81.5026 38.4095C82.7019 38.4095 83.4042 38.9531 83.4042 40.1679C83.4042 41.3831 82.7019 41.9263 81.5026 41.9263H79.9946V42.6369C79.9946 42.7983 79.8661 42.9345 79.6979 42.9345H79.1055C78.9442 42.9345 78.8091 42.7983 78.8091 42.6369V38.7064C78.8091 38.5395 78.9377 38.4095 79.0983 38.4095H81.5026Z" fill="#1BAC78"/>
<path d="M86.8748 38.7002C86.8748 38.5388 87.0103 38.4099 87.1715 38.4099H87.7643C87.9256 38.4099 88.0607 38.5388 88.0607 38.7064V42.0425H89.4402V38.7002C89.4402 38.5388 89.5753 38.4099 89.7369 38.4099H90.3293C90.4909 38.4099 90.626 38.5388 90.626 38.7064V42.6372C90.626 42.7983 90.4909 42.9348 90.3293 42.9348H84.6066C84.4453 42.9348 84.3099 42.7983 84.3099 42.6372V38.7064C84.3099 38.5388 84.4453 38.4099 84.6066 38.4099H85.199C85.3599 38.4099 85.4957 38.5388 85.4957 38.7002V42.0425H86.8748V38.7002Z" fill="#1BAC78"/>
<path d="M93.0408 39.3022V41.034H94.1881C94.8063 41.034 95.2643 40.9044 95.2643 40.1679C95.2643 39.4311 94.8063 39.3022 94.1881 39.3022H93.0408ZM94.5489 38.4095C95.7481 38.4095 96.4501 38.9531 96.4501 40.1679C96.4501 41.3831 95.7481 41.9263 94.5489 41.9263H93.0408V42.6369C93.0408 42.7983 92.912 42.9345 92.7441 42.9345H92.1517C91.9901 42.9345 91.855 42.7983 91.855 42.6369V38.7064C91.855 38.5395 91.9836 38.4095 92.1445 38.4095H94.5489Z" fill="#1BAC78"/>
<path d="M98.3096 41.9834C98.4837 41.9834 98.6508 42.0418 98.8372 42.0418H98.902C99.3145 42.0418 99.6047 41.7701 99.7591 41.2217H99.4889C98.3934 41.2217 97.8968 40.7751 97.4905 39.8441L96.9942 38.706C96.9236 38.5395 97.007 38.4095 97.1683 38.4095H97.832C98.0257 38.4095 98.1869 38.5322 98.251 38.6939L98.6119 39.5735C98.8124 40.0508 99.1019 40.329 99.6567 40.329H100.043L100.61 38.6998C100.674 38.5135 100.843 38.4095 101.003 38.4095H101.641C101.803 38.4095 101.893 38.5395 101.841 38.6939L100.816 41.6416C100.552 42.4043 100.056 42.9345 98.9668 42.9345H98.2062C98.0384 42.9345 97.9095 42.7986 97.9095 42.6369V42.2816C97.9095 42.1133 98.0384 41.9834 98.2062 41.9834H98.3096Z" fill="#1BAC78"/>
<path d="M106.607 38.4099C106.774 38.4099 106.904 38.5395 106.904 38.7064V39.0046C106.904 39.1722 106.774 39.3022 106.607 39.3022H105.202V42.6441C105.202 42.8045 105.066 42.9344 104.905 42.9344H104.312C104.152 42.9344 104.016 42.8045 104.016 42.6441V39.3022H102.611C102.443 39.3022 102.314 39.1722 102.314 39.0046V38.7064C102.314 38.5395 102.443 38.4099 102.611 38.4099H106.607Z" fill="#1BAC78"/>
<path d="M112.572 38.7064C112.572 38.5395 112.707 38.4099 112.868 38.4099H113.467C113.635 38.4099 113.771 38.5395 113.771 38.7064V42.6369C113.771 42.7983 113.635 42.9344 113.467 42.9344H112.868C112.707 42.9344 112.572 42.8045 112.572 42.6441V38.7064ZM108.93 40.8394V42.0421H110.226C110.593 42.0421 110.754 41.8161 110.754 41.4415C110.754 41.0672 110.593 40.8394 110.226 40.8394H108.93ZM110.226 39.9478C111.166 39.9478 111.94 40.4648 111.94 41.4415C111.94 42.4174 111.166 42.9344 110.226 42.9344H108.027C107.867 42.9344 107.744 42.7924 107.744 42.6307V38.7064C107.744 38.5395 107.873 38.4099 108.041 38.4099H108.634C108.795 38.4099 108.93 38.5395 108.93 38.7064V39.9478H110.226Z" fill="#1BAC78"/>
<path d="M118.765 40.9956V42.0808H120.563C120.898 42.0808 121.065 41.8617 121.065 41.5379C121.065 41.2151 120.898 40.9956 120.563 40.9956H118.765ZM118.765 39.2621V40.1683H120.446C120.71 40.1683 120.885 40.0062 120.885 39.7159C120.885 39.4249 120.71 39.2621 120.446 39.2621H118.765ZM117.578 38.7064C117.578 38.5453 117.708 38.4099 117.876 38.4099H120.434C121.239 38.4099 122.071 38.7586 122.071 39.6958C122.071 40.019 121.962 40.2709 121.646 40.5298C122.071 40.7561 122.251 41.1505 122.251 41.5769C122.251 42.4751 121.465 42.9344 120.582 42.9344H117.876C117.708 42.9344 117.578 42.7983 117.578 42.6369V38.7064Z" fill="#1BAC78"/>
<path d="M124.504 40.9497H126.508V39.3015H125.612C125.206 39.3015 124.884 39.5472 124.782 39.9354L124.504 40.9497ZM123.64 39.6378C123.904 38.6355 124.814 38.4092 125.728 38.4092H127.423C127.578 38.4092 127.694 38.5457 127.694 38.7002V42.6438C127.694 42.8052 127.559 42.9345 127.397 42.9345H126.804C126.637 42.9345 126.508 42.8052 126.508 42.6369V41.8413H124.272L124.059 42.6369C124.014 42.8052 123.853 42.9345 123.685 42.9345H123.066C122.899 42.9345 122.802 42.8052 122.847 42.6438L123.64 39.6378Z" fill="#1BAC78"/>
<path d="M131.487 38.7002C131.487 38.5388 131.622 38.4099 131.783 38.4099H132.376C132.538 38.4099 132.673 38.5388 132.673 38.7064V42.0425H134.052V38.7002C134.052 38.5388 134.188 38.4099 134.349 38.4099H134.942C135.102 38.4099 135.238 38.5388 135.238 38.7064V42.6372C135.238 42.7983 135.102 42.9348 134.942 42.9348H129.218C129.057 42.9348 128.922 42.7983 128.922 42.6372V38.7064C128.922 38.5388 129.057 38.4099 129.218 38.4099H129.812C129.973 38.4099 130.108 38.5388 130.108 38.7002V42.0425H131.487V38.7002Z" fill="#1BAC78"/>
<path d="M140.688 38.7064V39.0046C140.688 39.1722 140.553 39.3022 140.392 39.3022H137.653V40.2194H140.011C140.172 40.2194 140.308 40.3559 140.308 40.517V40.8145C140.308 40.9756 140.172 41.1111 140.011 41.1111H137.653V42.0421H140.385C140.546 42.0421 140.675 42.1714 140.675 42.3334V42.6369C140.675 42.7983 140.546 42.9344 140.378 42.9344H136.762C136.595 42.9344 136.466 42.7983 136.466 42.6307V38.7002C136.466 38.5395 136.602 38.4099 136.762 38.4099H140.392C140.553 38.4099 140.688 38.5395 140.688 38.7064Z" fill="#1BAC78"/>
<path d="M141.594 38.7064C141.594 38.5395 141.722 38.4099 141.89 38.4099H144.931C145.1 38.4099 145.229 38.5395 145.229 38.7064V39.0046C145.229 39.1722 145.1 39.3022 144.931 39.3022H142.779V42.6441C142.779 42.8045 142.644 42.9344 142.483 42.9344H141.89C141.728 42.9344 141.594 42.8045 141.594 42.6441V38.7064Z" fill="#1BAC78"/>
<path d="M146.804 40.6718C146.804 41.6415 147.184 42.1776 148.151 42.1776C149.118 42.1776 149.497 41.6415 149.497 40.6718C149.497 39.702 149.118 39.1664 148.151 39.1664C147.184 39.1664 146.804 39.702 146.804 40.6718ZM148.151 38.3124C149.762 38.3124 150.684 38.9922 150.684 40.6718C150.684 42.3524 149.762 43.0312 148.151 43.0312C146.539 43.0312 145.617 42.3524 145.617 40.6718C145.617 38.9922 146.539 38.3124 148.151 38.3124Z" fill="#1BAC78"/>
<path d="M155.418 40.9566V42.0418H156.972C157.313 42.0418 157.5 41.8621 157.5 41.4995C157.5 41.1377 157.313 40.9566 156.972 40.9566H155.418ZM156.972 40.0649C157.938 40.0649 158.686 40.5035 158.686 41.4995C158.686 42.4945 157.938 42.9341 156.972 42.9341H154.515C154.355 42.9341 154.232 42.8048 154.232 42.6438V38.7064C154.232 38.5388 154.362 38.4099 154.528 38.4099H158.073C158.234 38.4099 158.369 38.5388 158.369 38.7064V39.005C158.369 39.166 158.242 39.3022 158.08 39.3022H155.418V40.0649H156.972Z" fill="#1BAC78"/>
<path d="M163.394 42.9345C163.232 42.9345 163.097 42.7986 163.097 42.6369V39.709L161.454 42.6369C161.363 42.7986 161.164 42.9345 160.996 42.9345H159.952C159.785 42.9345 159.656 42.7986 159.656 42.6369V38.706C159.656 38.5395 159.785 38.4095 159.952 38.4095H160.506C160.668 38.4095 160.803 38.5395 160.803 38.6998V41.8614L162.595 38.706C162.684 38.5516 162.872 38.4095 163.026 38.4095H163.954C164.116 38.4095 164.244 38.5457 164.244 38.706V42.6369C164.244 42.7986 164.11 42.9345 163.948 42.9345H163.394Z" fill="#1BAC78"/>
<path d="M167.11 39.2763C166.82 39.2763 166.55 39.3796 166.409 39.6637C166.305 39.8769 166.163 39.9612 165.982 39.9612H165.608C165.525 39.9612 165.287 39.9025 165.287 39.6122C165.287 38.856 166.221 38.3839 167.001 38.3839H167.967C168.954 38.3839 169.798 38.6943 169.798 39.7663C169.798 40.1095 169.662 40.4461 169.366 40.6718C169.727 40.8978 169.862 41.1954 169.862 41.5831C169.862 42.5978 169.179 42.96 168.103 42.96H166.897C166.117 42.96 165.183 42.4886 165.183 41.6989C165.183 41.4086 165.422 41.3505 165.505 41.3505H165.879C166.06 41.3505 166.208 41.4349 166.33 41.6989C166.44 41.9329 166.717 42.0684 167.007 42.0684H167.993C168.425 42.0684 168.677 41.9512 168.677 41.5831C168.677 41.2151 168.425 41.0989 167.993 41.0989H167.181C167.02 41.0989 166.885 40.969 166.885 40.8014V40.5425C166.885 40.3877 167.013 40.245 167.168 40.245H167.877C168.368 40.245 168.612 40.1157 168.612 39.7608C168.612 39.4055 168.368 39.2763 167.877 39.2763H167.11Z" fill="#1BAC78"/>
<path d="M174.183 41.0212H172.018V42.6435C172.018 42.8048 171.883 42.9348 171.722 42.9348H171.135C170.967 42.9348 170.832 42.7983 170.832 42.6372V38.7064C170.832 38.5395 170.967 38.4099 171.135 38.4099H171.722C171.883 38.4099 172.018 38.5395 172.018 38.7064V40.1299H174.183V38.7064C174.183 38.5395 174.319 38.4099 174.48 38.4099H175.067C175.235 38.4099 175.37 38.5395 175.37 38.7064V42.6372C175.37 42.7983 175.235 42.9348 175.067 42.9348H174.48C174.319 42.9348 174.183 42.8048 174.183 42.6435V41.0212Z" fill="#1BAC78"/>
<path d="M180.819 38.7064V39.0046C180.819 39.1722 180.684 39.3022 180.522 39.3022H177.783V40.2194H180.142C180.303 40.2194 180.439 40.3559 180.439 40.517V40.8145C180.439 40.9756 180.303 41.1111 180.142 41.1111H177.783V42.0421H180.516C180.677 42.0421 180.806 42.1714 180.806 42.3334V42.6369C180.806 42.7983 180.677 42.9344 180.509 42.9344H176.894C176.726 42.9344 176.597 42.7983 176.597 42.6307V38.7002C176.597 38.5395 176.733 38.4099 176.894 38.4099H180.522C180.684 38.4099 180.819 38.5395 180.819 38.7064Z" fill="#1BAC78"/>
<path d="M183.8 38.3839H184.502C185.378 38.3839 186.314 38.856 186.314 39.7729C186.314 40.0646 186.075 40.1223 185.99 40.1223H185.617C185.436 40.1223 185.289 40.0379 185.166 39.7729C185.025 39.4687 184.779 39.2763 184.393 39.2763H183.832C182.903 39.2763 182.653 39.618 182.653 40.6718C182.653 41.7259 182.903 42.0684 183.832 42.0684H184.458C184.844 42.0684 185.089 41.8741 185.23 41.5703C185.353 41.306 185.501 41.2216 185.682 41.2216H186.056C186.139 41.2216 186.378 41.28 186.378 41.5703C186.378 42.4886 185.443 42.96 184.567 42.96H183.8C182.26 42.96 181.467 42.2425 181.467 40.6718C181.467 39.1014 182.26 38.3839 183.8 38.3839Z" fill="#1BAC78"/>
<path d="M188.596 40.9497H190.601V39.3015H189.706C189.299 39.3015 188.976 39.5472 188.874 39.9354L188.596 40.9497ZM187.733 39.6378C187.997 38.6355 188.906 38.4092 189.821 38.4092H191.516C191.671 38.4092 191.786 38.5457 191.786 38.7002V42.6438C191.786 42.8052 191.651 42.9345 191.491 42.9345H190.897C190.73 42.9345 190.601 42.8052 190.601 42.6369V41.8413H188.365L188.152 42.6369C188.107 42.8052 187.945 42.9345 187.779 42.9345H187.159C186.992 42.9345 186.895 42.8052 186.94 42.6438L187.733 39.6378Z" fill="#1BAC78"/>
<path d="M53.1987 23.5335C53.2025 23.669 53.2187 23.7989 53.2187 23.9358C53.2187 26.6387 53.361 28.9908 52.2093 31.2573C51.0583 33.5237 49.4279 35.474 47.3219 37.1076C45.2126 38.7426 43.0426 40.0862 40 41C36.1877 41.6354 32.5721 41.9937 28.7408 41.9986L28.7401 42H28.6826H28.6812H24.5C21.8826 42.001 19.558 43.9861 18.4938 46.2715C18.07 46.8871 17.5799 48.4789 18.0086 52.595C20.778 53.5737 23.7544 54.1115 26.8577 54.1115C41.562 54.1115 53.4819 42.1575 53.4819 27.4121C53.4819 26.094 53.3824 24.7998 53.1987 23.5335Z" fill="#1BAC78"/>
<path d="M12.8086 9.98567H34.4484C37.4907 9.98567 40.1752 10.3244 42.5 11C44.8255 11.6763 46.7754 12.5275 48.3644 13.7696C49.7101 14.824 50.7647 16.0623 51.5635 17.4613C47.629 7.64525 38.0535 0.711823 26.8577 0.711823C18.8502 0.711823 11.6845 4.37416 6.80405 9.98567H8.44166H12.8086Z" fill="#1BAC78"/>
<path d="M38.0268 22.1464C37.0495 21.3843 35.6018 21.0028 33.6919 21.0028L1 21C0.531323 22.9789 0.234131 25.2888 0.234131 27.4118C0.234131 33.2981 1.89915 39.1237 5.11752 43.5381L5 37C5.50314 31.8001 9.78853 31 13 31H31.9132C34.26 31 36.1065 30.456 37.4546 29.3657C38.7996 28.2774 39.4651 27.1395 39.4651 25.4395C39.4651 24.176 39.0042 22.9094 38.0268 22.1464Z" fill="#1BAC78"/>
</g>
<defs>
<clipPath id="clip0">
<rect width="192" height="54" fill="white"/>
</clipPath>
</defs>
</svg>
